<svg width="50" height="50" viewBox="0 0 50 50" fill="none" xmlns="http://www.w3.org/2000/svg">
<g filter="url(#filter0_d_2001_80)">
<rect x="8" y="6" width="34" height="34" rx="8" fill="#FEFEFE"/>
<rect x="8.5" y="6.5" width="33" height="33" rx="7.5" stroke="#EEECFE"/>
<path d="M19.9834 15.143C19.9834 14.497 20.4818 14 21.1297 14H28.8048C29.4527 14 29.951 14.497 29.951 15.143V17.9259C29.951 18.572 30.4494 19.0689 31.0973 19.0689H33.7886C34.4365 19.0689 34.9348 19.5659 34.9348 20.2119V22.9948C34.9348 23.6409 34.4365 24.1378 33.7886 24.1378H31.0973C30.4494 24.1378 29.951 23.6409 29.951 22.9948V20.2119C29.951 19.5659 29.4527 19.0689 28.8048 19.0689H21.1297C20.4818 19.0689 19.9834 19.5659 19.9834 20.2119L19.9834 26.7081C19.9834 27.3541 20.4818 27.8511 21.1297 27.8511L25.4453 27.8511C27.9338 27.8511 29.951 29.8684 29.951 32.3568C29.951 32.6678 29.6989 32.92 29.3878 32.92L21.1297 32.92C20.4818 32.92 19.9834 32.423 19.9834 31.777V28.9941C19.9834 28.348 19.4851 27.8511 18.8372 27.8511H16.1459C15.498 27.8511 14.9996 27.3541 14.9996 26.7081V20.2119C14.9996 19.5659 15.498 19.0689 16.1459 19.0689H18.8372C19.4851 19.0689 19.9834 18.572 19.9834 17.9259V15.143Z" fill="#5D4BFF"/>
</g>
<defs>
<filter id="filter0_d_2001_80" x="0" y="0" width="50" height="50" filterUnits="userSpaceOnUse" color-interpolation-filters="sRGB">
<feFlood flood-opacity="0" result="BackgroundImageFix"/>
<feColorMatrix in="SourceAlpha" type="matrix" values="0 0 0 0 0 0 0 0 0 0 0 0 0 0 0 0 0 0 127 0" result="hardAlpha"/>
<feOffset dy="2"/>
<feGaussianBlur stdDeviation="4"/>
<feComposite in2="hardAlpha" operator="out"/>
<feColorMatrix type="matrix" values="0 0 0 0 0 0 0 0 0 0 0 0 0 0 0 0 0 0 0.07 0"/>
<feBlend mode="normal" in2="BackgroundImageFix" result="effect1_dropShadow_2001_80"/>
<feBlend mode="normal" in="SourceGraphic" in2="effect1_dropShadow_2001_80" result="shape"/>
</filter>
</defs>
</svg>
