<svg width="32" height="32" viewBox="0 0 32 32" fill="none" xmlns="http://www.w3.org/2000/svg">
<path d="M25.7706 5.96863C23.8416 5.05092 21.753 4.38484 19.5775 4C19.5392 4.00056 19.5027 4.01652 19.4759 4.04441C19.2149 4.53286 18.9103 5.16934 18.7072 5.65779C16.3997 5.30277 14.053 5.30277 11.7454 5.65779C11.5424 5.15453 11.2378 4.53286 10.9622 4.04441C10.9477 4.0148 10.9042 4 10.8607 4C8.68511 4.38484 6.61107 5.05092 4.66756 5.96863C4.65305 5.96863 4.63855 5.98343 4.62405 5.99823C0.679016 12.0225 -0.408769 17.884 0.127871 23.6863C0.127871 23.7159 0.142375 23.7455 0.171383 23.7603C2.78206 25.7141 5.29122 26.8983 7.77137 27.6827C7.81488 27.6975 7.85839 27.6827 7.8729 27.6531C8.45305 26.839 8.97518 25.9805 9.4248 25.0776C9.45381 25.0184 9.4248 24.9592 9.36679 24.9444C8.54007 24.6188 7.75687 24.2339 6.98816 23.7899C6.93015 23.7603 6.93015 23.6715 6.97366 23.6271C7.1332 23.5087 7.29274 23.3754 7.45229 23.257C7.48129 23.2274 7.5248 23.2274 7.55381 23.2422C12.5431 25.5661 17.924 25.5661 22.8553 23.2422C22.8843 23.2274 22.9278 23.2274 22.9568 23.257C23.1164 23.3902 23.2759 23.5087 23.4355 23.6419C23.4935 23.6863 23.4935 23.7751 23.421 23.8047C22.6668 24.2635 21.8691 24.6336 21.0423 24.9592C20.9843 24.974 20.9698 25.048 20.9843 25.0924C21.4484 25.9953 21.9706 26.8538 22.5362 27.6679C22.5797 27.6827 22.6232 27.6975 22.6668 27.6827C25.1614 26.8983 27.6706 25.7141 30.2812 23.7603C30.3103 23.7455 30.3248 23.7159 30.3248 23.6863C30.9629 16.9811 29.266 11.164 25.8286 5.99823C25.8141 5.98343 25.7996 5.96863 25.7706 5.96863ZM10.179 20.1487C8.68511 20.1487 7.43778 18.7425 7.43778 17.0107C7.43778 15.2789 8.6561 13.8727 10.179 13.8727C11.7164 13.8727 12.9347 15.2937 12.9202 17.0107C12.9202 18.7425 11.7019 20.1487 10.179 20.1487ZM20.2881 20.1487C18.7942 20.1487 17.5469 18.7425 17.5469 17.0107C17.5469 15.2789 18.7652 13.8727 20.2881 13.8727C21.8255 13.8727 23.0439 15.2937 23.0294 17.0107C23.0294 18.7425 21.8255 20.1487 20.2881 20.1487Z" fill="#5D4BFF"/>
</svg>
