<svg width="16" height="16" viewBox="0 0 16 16" fill="none" xmlns="http://www.w3.org/2000/svg">
<g clip-path="url(#clip0_1_989)">
<path d="M5.73153 4.2246C5.73153 3.93133 5.95838 3.70573 6.25327 3.70573H9.74659C10.0415 3.70573 10.2683 3.93133 10.2683 4.2246V5.48791C10.2683 5.78118 10.4952 6.00677 10.7901 6.00677H12.015C12.3099 6.00677 12.5367 6.23236 12.5367 6.52563V7.78895C12.5367 8.08222 12.3099 8.30781 12.015 8.30781H10.7901C10.4952 8.30781 10.2683 8.08222 10.2683 7.78895V6.52563C10.2683 6.23236 10.0415 6.00677 9.74659 6.00677H6.25327C5.95838 6.00677 5.73153 6.23236 5.73153 6.52563L5.73153 9.47457C5.73153 9.76784 5.95837 9.99343 6.25326 9.99343L8.22296 9.99344C9.35259 9.99344 10.2683 10.9092 10.2683 12.0388C10.2683 12.18 10.1539 12.2945 10.0127 12.2945L6.25326 12.2945C5.95837 12.2945 5.73153 12.0689 5.73153 11.7756V10.5123C5.73153 10.219 5.50469 9.99343 5.2098 9.99343H3.98487C3.68997 9.99343 3.46313 9.76784 3.46313 9.47457V6.52563C3.46313 6.23236 3.68997 6.00677 3.98487 6.00677H5.2098C5.50469 6.00677 5.73153 5.78118 5.73153 5.48791V4.2246Z" fill="#ECB900"/>
<path d="M13.0908 0.519531C13.0908 0.80646 13.3234 1.03906 13.6104 1.03906H14.0259C14.504 1.03906 14.8916 1.42666 14.8916 1.90479V2.21631C14.8916 2.52238 15.1397 2.77051 15.4458 2.77051C15.7519 2.77051 16 3.01863 16 3.32471V12.6753C16 12.9814 15.7519 13.2295 15.4458 13.2295C15.1397 13.2295 14.8916 13.4776 14.8916 13.7837V14.0952C14.8916 14.5733 14.504 14.9609 14.0259 14.9609H13.6104C13.3234 14.9609 13.0908 15.1935 13.0908 15.4805C13.0908 15.7674 12.8582 16 12.5713 16H3.42871C3.14178 16 2.90918 15.7674 2.90918 15.4805C2.90918 15.1935 2.67658 14.9609 2.38965 14.9609H1.97412C1.496 14.9609 1.1084 14.5733 1.1084 14.0952V13.7837C1.1084 13.4776 0.860275 13.2295 0.554199 13.2295C0.248123 13.2295 0 12.9814 0 12.6753V3.32471C0 3.01863 0.248123 2.77051 0.554199 2.77051C0.860275 2.77051 1.1084 2.52238 1.1084 2.21631V1.90479C1.1084 1.42666 1.496 1.03906 1.97412 1.03906H2.38965C2.67658 1.03906 2.90918 0.80646 2.90918 0.519531C2.90918 0.232602 3.14178 0 3.42871 0H12.5713C12.8582 0 13.0908 0.232602 13.0908 0.519531ZM4.5708 1.38574C3.95892 1.38574 3.46289 1.88177 3.46289 2.49365V2.56299C3.46289 3.13658 2.99791 3.60156 2.42432 3.60156C1.85073 3.60156 1.38574 4.06655 1.38574 4.64014V11.3599C1.38574 11.9335 1.85073 12.3984 2.42432 12.3984C2.99791 12.3984 3.46289 12.8634 3.46289 13.437V13.5063C3.46289 14.1182 3.95892 14.6143 4.5708 14.6143H11.4292C12.0411 14.6143 12.5371 14.1182 12.5371 13.5063V13.4374C12.5371 12.8636 13.0023 12.3984 13.5761 12.3984C14.15 12.3984 14.6152 11.9332 14.6151 11.3593L14.6144 4.64008C14.6143 4.0665 14.1493 3.60156 13.5757 3.60156C13.0021 3.60156 12.5371 3.13655 12.5371 2.56293V2.49365C12.5371 1.88177 12.0411 1.38574 11.4292 1.38574H4.5708Z" fill="#ECB900"/>
</g>
<defs>
<clipPath id="clip0_1_989">
<rect width="16" height="16" fill="white"/>
</clipPath>
</defs>
</svg>
