<svg width="12" height="12" viewBox="0 0 12 12" fill="none" xmlns="http://www.w3.org/2000/svg">
<path d="M3.5 5.5C3.03501 5.5 2.80252 5.5 2.61177 5.55111C2.09413 5.68981 1.68981 6.09413 1.55111 6.61177C1.5 6.80252 1.5 7.03501 1.5 7.5V8.1C1.5 8.94008 1.5 9.36012 1.66349 9.68099C1.8073 9.96323 2.03677 10.1927 2.31901 10.3365C2.63988 10.5 3.05992 10.5 3.9 10.5H8.1C8.94008 10.5 9.36012 10.5 9.68099 10.3365C9.96323 10.1927 10.1927 9.96323 10.3365 9.68099C10.5 9.36012 10.5 8.94008 10.5 8.1V7.5C10.5 7.03501 10.5 6.80252 10.4489 6.61177C10.3102 6.09413 9.90587 5.68981 9.38823 5.55111C9.19748 5.5 8.96499 5.5 8.5 5.5M8 3.5L6 1.5M6 1.5L4 3.5M6 1.5V7.5" stroke="#5D4BFF" stroke-linecap="round" stroke-linejoin="round"/>
</svg>
